<?xml version="1.0"?>
<svg version="1.1" xmlns="http://www.w3.org/2000/svg" xmlns:xlink="http://www.w3.org/1999/xlink" viewBox="0 0 130 130">
            <path id="shapePath1" d="M33.4742,24.885 C33.5722,24.085 33.4892,23.245 33.7872,22.576 C34.8132,20.279 36.8612,19.591 39.4152,20.625 C42.3692,21.822 45.0002,23.598 47.4232,25.616 C51.1402,28.71 54.7022,31.99 58.3572,35.16 C59.7492,36.368 61.2132,37.49 62.7012,38.696 C62.9432,36.831 63.7942,36.123 65.5392,36.467 C66.7262,36.701 67.8602,37.204 69.0172,37.592 C71.0412,38.271 73.0212,39.208 75.1002,39.571 C77.6272,40.013 79.4192,41.179 80.7962,43.291 C83.3472,47.204 86.3532,50.765 89.5002,54.21 C89.8982,54.646 90.2132,55.21 90.4082,55.771 C91.7152,59.529 93.0172,63.29 94.2462,67.074 C95.2992,70.316 96.9562,73.402 96.8652,76.959 C96.8572,77.242 97.2452,77.645 97.5492,77.807 C99.1662,78.677 100.82,79.477 102.447,80.33 C102.663,80.443 102.797,80.714 102.968,80.911 C102.71,80.912 102.407,81.003 102.2,80.9 C100.634,80.13 99.1062,79.279 97.5252,78.544 C96.6432,78.134 96.2222,77.571 96.1712,76.587 C96.1102,75.432 96.0802,74.223 95.7222,73.143 C93.8112,67.393 91.8052,61.673 89.8182,55.948 C89.6812,55.553 89.4992,55.134 89.2202,54.834 C85.7342,51.071 82.5512,47.066 79.6622,42.83 C78.7252,41.457 77.5022,40.65 75.8442,40.403 C73.2222,40.011 70.7452,39.156 68.3542,37.996 C67.4082,37.537 66.3392,37.285 65.3002,37.071 C64.6582,36.94 63.8982,36.945 63.5242,37.685 C63.1252,38.477 63.3682,39.287 64.1172,39.923 C64.4912,40.241 64.8462,40.586 65.2472,40.865 C69.6192,43.912 74.0342,46.9 78.3652,50.005 C81.5002,52.252 84.5292,54.646 87.5942,56.99 C87.8432,57.18 88.0032,57.485 88.2042,57.736 C88.1312,57.812 88.0572,57.888 87.9822,57.964 C87.7532,57.819 87.5062,57.696 87.3002,57.524 C86.6882,57.013 86.1322,56.427 85.4852,55.969 C81.2322,52.965 77.0212,49.897 72.6822,47.023 C67.0162,43.272 61.8352,38.926 56.7192,34.487 C54.9862,32.983 53.2422,31.489 51.5022,29.992 C50.4342,29.074 49.3252,28.199 48.3012,27.234 C45.8922,24.965 43.1502,23.187 40.2322,21.67 C39.5102,21.295 38.6962,21.07 37.9002,20.868 C36.7222,20.569 35.7362,20.961 34.9382,21.869 C34.1152,22.807 33.8012,23.842 34.4462,24.984 C34.7552,25.53 35.1282,26.075 35.5842,26.499 C41.2262,31.73 47.1322,36.67 52.4312,42.276 C54.3772,44.334 56.6782,46.057 58.8092,47.941 C58.9542,48.069 59.0382,48.265 59.1522,48.43 C59.0862,48.501 59.0192,48.572 58.9532,48.642 C58.6012,48.451 58.1992,48.317 57.9072,48.059 C55.8662,46.254 53.7292,44.538 51.8452,42.579 C45.1162,35.584 37.7892,29.256 30.3742,23.021 C29.4622,22.254 28.3832,21.924 27.2322,21.895 C24.9522,21.837 23.3892,24.555 24.4492,26.814 C24.8582,27.686 25.4742,28.484 26.1062,29.223 C27.8762,31.293 29.6902,33.324 31.5072,35.351 C36.6832,41.123 41.7292,47.02 47.7622,51.959 C48.6262,52.666 49.2982,53.615 50.0232,54.483 C50.2332,54.735 50.3152,55.094 50.4562,55.404 C50.3782,55.464 50.2992,55.525 50.2212,55.585 C50.0512,55.439 49.8622,55.31 49.7152,55.144 C48.8062,54.116 48.0382,52.913 46.9812,52.073 C42.6802,48.661 39.0722,44.562 35.3572,40.573 C32.6832,37.702 30.1502,34.7 27.5442,31.766 C26.7042,30.821 25.6862,30.6 24.6572,31.09 C22.7872,31.981 21.9812,34.797 23.1212,36.516 C25.9472,40.779 28.7672,45.036 31.9042,49.093 C34.4662,52.406 37.1292,55.572 40.2682,58.347 C41.2732,59.236 42.2292,60.221 43.0262,61.297 C44.3182,63.041 45.4682,64.891 46.6532,66.713 C46.7682,66.891 46.7062,67.184 46.7262,67.423 C46.5272,67.282 46.2832,67.176 46.1382,66.992 C45.9132,66.705 45.7582,66.364 45.5722,66.048 C43.9882,63.37 42.0982,60.948 39.8732,58.754 C36.2532,55.187 32.7332,51.518 29.1752,47.888 C28.5962,47.298 28.0832,46.634 27.4582,46.098 C26.5172,45.29 25.1762,45.361 24.6112,46.241 C24.0242,47.156 23.5332,48.199 23.9212,49.278 C24.4432,50.736 25.0432,52.192 25.8192,53.527 C28.2062,57.633 31.4282,61.112 34.5062,64.686 C38.1652,68.936 41.9852,73.047 44.7532,77.989 C45.2682,78.909 45.9892,79.766 46.7782,80.471 C51.4872,84.677 56.1802,88.906 61.0042,92.981 C65.6792,96.93 70.6782,100.398 76.5802,102.357 C77.9012,102.796 79.1382,103.489 80.4132,104.064 C80.3862,104.178 80.3572,104.292 80.3292,104.405 C79.9432,104.342 79.5262,104.351 79.1762,104.202 C77.6262,103.545 76.1352,102.735 74.5522,102.179 C71.0672,100.953 67.9862,99.04 65.0322,96.882 C59.1552,92.587 53.7612,87.72 48.3572,82.86 C46.0242,80.761 44.1482,78.363 42.5062,75.709 C41.3512,73.841 40.0072,72.074 38.6062,70.379 C36.1652,67.425 33.6062,64.57 31.1142,61.659 C28.5402,58.652 26.0372,55.586 24.2602,52.017 C23.8272,51.148 23.4872,50.21 23.2652,49.266 C22.9182,47.785 23.8272,45.69 24.9252,45.16 C26.1002,44.593 27.4352,45.047 28.7212,46.452 C29.1632,46.936 29.6022,47.424 30.0422,47.91 C30.1092,47.726 30.0632,47.629 30.0032,47.541 C27.5442,43.994 25.0922,40.442 22.6212,36.903 C21.9032,35.875 21.6862,34.795 22.0842,33.597 C22.7122,31.702 23.7512,30.274 26.0732,30.195 C25.8112,29.882 25.5912,29.673 25.4352,29.424 C24.8402,28.469 24.0742,27.567 23.7232,26.527 C22.6832,23.442 25.1562,20.707 28.3062,21.455 C29.3032,21.691 30.2472,22.299 31.1162,22.885 C31.9922,23.477 32.7442,24.254 33.4742,24.885 Z" style="stroke:#ffffff;stroke-opacity:1;stroke-width:2.5;stroke-linejoin:;stroke-miterlimit:2;stroke-linecap:butt;fill:none;"/>
</svg>
