<?xml version="1.0" encoding="UTF-8" standalone="no"?>
<svg
   xmlns:dc="http://purl.org/dc/elements/1.1/"
   xmlns:cc="http://creativecommons.org/ns#"
   xmlns:rdf="http://www.w3.org/1999/02/22-rdf-syntax-ns#"
   xmlns:svg="http://www.w3.org/2000/svg"
   xmlns="http://www.w3.org/2000/svg"
   xmlns:sodipodi="http://sodipodi.sourceforge.net/DTD/sodipodi-0.dtd"
   xmlns:inkscape="http://www.inkscape.org/namespaces/inkscape"
   version="1.1"
   viewBox="0 0 130 130"
   id="svg3474"
   inkscape:version="0.91 r13725"
   sodipodi:docname="scissors.svg">
  <metadata
     id="metadata3481">
    <rdf:RDF>
      <cc:Work
         rdf:about="">
        <dc:format>image/svg+xml</dc:format>
        <dc:type
           rdf:resource="http://purl.org/dc/dcmitype/StillImage" />
      </cc:Work>
    </rdf:RDF>
  </metadata>
  <defs
     id="defs3479" />
  <sodipodi:namedview
     pagecolor="#ffffff"
     bordercolor="#666666"
     borderopacity="1"
     objecttolerance="10"
     gridtolerance="10"
     guidetolerance="10"
     inkscape:pageopacity="0"
     inkscape:pageshadow="2"
     inkscape:window-width="1416"
     inkscape:window-height="750"
     id="namedview3477"
     showgrid="false"
     inkscape:zoom="1.8153846"
     inkscape:cx="12.118644"
     inkscape:cy="65"
     inkscape:window-x="0"
     inkscape:window-y="0"
     inkscape:window-maximized="0"
     inkscape:current-layer="svg3474" />
  <!-- <circle cx="65" cy="65" r="65" stroke="#fff" stroke-width="8" fill="#F57F17"/> -->
  <path
     style="color:#000000;font-style:normal;font-variant:normal;font-weight:normal;font-stretch:normal;font-size:medium;line-height:normal;font-family:sans-serif;text-indent:0;text-align:start;text-decoration:none;text-decoration-line:none;text-decoration-style:solid;text-decoration-color:#000000;letter-spacing:normal;word-spacing:normal;text-transform:none;direction:ltr;block-progression:tb;writing-mode:lr-tb;baseline-shift:baseline;text-anchor:start;white-space:normal;clip-rule:nonzero;display:inline;overflow:visible;visibility:visible;opacity:1;isolation:auto;mix-blend-mode:normal;color-interpolation:sRGB;color-interpolation-filters:linearRGB;solid-color:#000000;solid-opacity:1;fill:#ffffff;fill-opacity:1;fill-rule:nonzero;stroke:none;stroke-width:2.5;stroke-linecap:butt;stroke-linejoin:miter;stroke-miterlimit:2;stroke-dasharray:none;stroke-dashoffset:0;stroke-opacity:1;color-rendering:auto;image-rendering:auto;shape-rendering:auto;text-rendering:auto;enable-background:accumulate"
     d="m 74.025391,12.058594 c -0.925355,5.68e-4 -1.840727,0.277146 -2.619141,0.748047 -0.942871,0.571962 -1.850711,1.338723 -2.527344,2.296875 -4.486628,6.345402 -9.111655,12.720617 -12.351562,20.050781 -0.952085,2.156192 -1.897012,4.29289 -2.96875,6.324219 -0.594627,1.129421 -1.361871,2.221005 -2.22461,3.15625 -1.196357,1.296945 -2.158969,2.706919 -2.9375,4.283203 -0.510289,1.033937 -1.235302,2.048385 -2.023437,3.023437 -1.226304,1.518145 -2.718689,2.965735 -4.044922,4.683594 -4.708235,6.098076 -9.334337,12.243895 -14.027344,18.328125 -0.426881,0.553364 -1.054408,1.088617 -1.654297,1.40625 -2.396927,1.269367 -4.883323,2.432433 -7.371093,3.658203 -0.308184,0.150903 -0.530189,0.300024 -0.691407,0.394531 l -0.738281,0.433594 0.136719,0.847656 c 0.01574,0.0963 0.03252,0.198845 0.05078,0.310547 l 0.183594,1.126953 1.138672,-0.08008 c 0.01528,-0.0011 0.464543,0.188049 1.248047,-0.191406 l 0.002,0 c 2.491652,-1.210145 4.949009,-2.455756 7.416015,-3.644531 1.19067,-0.573242 2.141246,-1.427431 2.88086,-2.462891 1.124239,-1.573935 2.311391,-3.126663 3.488281,-4.710937 4.573588,-6.159179 9.062927,-12.318466 14.222656,-17.873047 l 0.002,0 c 1.126467,-1.21437 2.004046,-2.547705 2.708985,-4.017578 0.499958,-1.045018 1.072564,-2.046796 1.734375,-2.699219 1.60129,-1.579854 2.835543,-3.377386 3.740234,-5.40625 0.450575,-1.009516 1.007572,-2.050783 1.478516,-3.205078 l -0.002,0 C 61.420427,31.140669 66.18669,24.308611 71.039062,17.419922 l 0.002,0 0,-0.002 c 0.54493,-0.775071 1.261104,-1.51267 1.943359,-1.90625 0.782494,-0.451914 1.322384,-0.401991 1.708984,-0.189453 0.386601,0.212537 0.740115,0.672526 0.802735,1.578125 0.02632,0.39225 -0.09699,0.985133 -0.304688,1.480468 -0.601756,1.436766 -1.258837,2.850032 -1.986328,4.208985 -3.562457,6.654536 -5.960256,13.704946 -8.30664,20.705078 l 0,0.002 c -0.614371,1.834825 -0.482464,3.785217 0.416015,5.521484 0.322702,0.623106 0.754112,1.259918 1.564453,1.517579 0.810342,0.25766 1.569532,-0.03477 2.189453,-0.404297 1.234576,-0.735314 2.399935,-1.552233 3.525391,-2.373047 2.653498,-1.932881 5.318595,-3.730409 8.208984,-5.158203 3.656832,-1.806192 7.211906,-3.786124 10.732422,-5.78125 2.480588,-1.405667 5.16718,-2.339093 7.988282,-3.1875 0.617742,-0.185968 1.206162,0.01784 1.722652,0.515625 0.51649,0.497786 0.81702,1.25953 0.75196,1.851562 -0.008,0.06898 -0.28554,0.552999 -0.31641,0.576172 -1.3571,1.020216 -2.857876,1.947611 -4.355468,2.980469 -4.030188,2.780432 -8.247366,5.426946 -12.183594,8.529297 -2.694837,2.122699 -5.46981,3.966457 -8.478516,5.496093 l 0,0.002 -0.002,0 c -0.959638,0.488361 -1.938264,0.992558 -2.902343,1.572266 -0.69215,0.41529 -1.361475,0.905377 -1.966797,1.470703 -0.363493,0.338821 -0.491811,0.63896 -0.607422,0.984375 -0.115611,0.345415 -0.322328,0.713016 0.04492,1.4375 l 0,0.002 0.002,0.002 c 0.386296,0.753901 0.968519,1.133908 1.519531,1.408204 0.592676,0.296338 1.008659,0.159544 1.222656,0.117187 0.213998,-0.04236 0.312588,-0.0428 0.189453,-0.04687 l 0.002,0 c 0.804204,0.02577 1.332282,0.08702 1.164062,-0.01172 1.109584,0.651446 2.166236,1.359529 3.003906,2.169922 0.962535,0.93239 1.038102,1.745407 0.38086,3 l 0,0.002 c -0.303133,0.579211 -0.725628,1.229667 -1.113282,1.84961 -0.644787,-0.526641 -1.298272,-1.061792 -1.929687,-1.56836 -0.449023,-0.363671 -0.739202,-0.380137 -0.71875,-0.371093 L 73.341797,64.6875 73.201172,66.443359 c 0.0068,-0.08469 -0.01051,0.01882 -0.04102,0.205079 -0.01525,0.09313 -0.03651,0.213058 -0.02539,0.412109 0.01112,0.19905 0.05742,0.539899 0.355468,0.869141 0.439617,0.484215 0.875872,0.822668 1.19336,1.123046 1.094627,1.036571 2.19097,1.905626 2.966797,2.857422 1.24596,1.527758 0.97326,3.873422 -0.544922,5.207032 l -0.002,0.002 0,0.002 c -0.07055,0.06241 -0.0877,0.0773 -0.113282,0.09961 -1.729963,0.0017 -3.315573,0.671502 -4.412109,1.925781 l 0,0.002 c -0.283479,0.324784 -0.821275,0.705167 -1.396484,1.279296 -0.48829,0.487374 -0.933353,1.248682 -1.111329,2.158204 -0.03816,0.03366 -0.09682,0.08269 -0.207031,0.175781 l 0,0.002 -0.002,0 c -2.706292,2.293809 -5.328776,4.634651 -8.058594,6.779297 -5.129734,4.029647 -10.023025,7.959004 -16.292968,9.470703 -2.613344,0.628879 -4.67061,2.283958 -6.634766,3.304688 l -0.916016,0.47656 0.292969,0.98828 c 0.037,0.125 0.07154,0.23807 0.09961,0.34375 l 0.300782,1.13672 1.154297,-0.23242 c 0.153024,-0.031 0.658365,0.0296 1.361328,-0.33594 l 0.002,0 0.002,-0.002 c 1.598278,-0.83927 3.142716,-1.71887 4.689453,-2.53906 l 0.002,0 c 0.242847,-0.12903 0.608556,-0.24596 1.046875,-0.37305 0.901586,-0.26214 2.120239,-0.36907 3.357422,-0.99219 2.238985,-1.128097 4.449585,-2.349551 6.585938,-3.687498 5.660294,-3.54372 10.340132,-8.138024 15.285156,-12.183593 l 0.002,-0.002 0.002,-0.002 c 0.533585,-0.439422 0.840828,-0.921194 0.925781,-1.675781 0.05457,-0.482431 0.211028,-0.60336 0.789063,-0.902343 l 0.002,0 c 1.029092,-0.533493 2.031565,-1.046878 3.033203,-1.441407 4.478025,-1.763671 6.319853,-7.755665 2.955078,-11.279297 0.565021,-0.846001 1.125997,-1.725181 1.625,-2.660156 l 0,-0.002 c 0.732423,-1.374514 0.945139,-3.010962 0.38086,-4.568359 l 0,-0.002 c -0.736265,-2.034414 -2.320849,-3.269885 -3.830078,-4.205078 -0.557883,-0.345644 -1.197794,-0.71741 -1.970704,-0.943359 3.923753,-2.140435 7.870536,-4.308662 11.50586,-7.257813 3.982953,-3.231876 8.515739,-5.927206 12.910156,-8.933593 1.06829,-0.731195 2.20739,-1.464621 3.29883,-2.34375 0.67364,-0.54304 1.09875,-1.23906 1.26758,-2.091797 0.33966,-1.722943 -0.26782,-3.470795 -1.4375,-4.722656 -1.16969,-1.251862 -3.06086,-1.99702 -5.03516,-1.427735 l -0.002,0 c -3.054017,0.881123 -6.103677,1.930092 -8.945313,3.677735 -1.279335,0.786701 -2.696162,1.470696 -4.130859,2.240234 -5.10633,2.739571 -10.514036,5.227427 -15.267578,9.058594 -0.640955,0.517262 -1.449718,1.000159 -2.265625,1.529297 -0.359673,-1.009228 -0.354898,-1.983625 0.0332,-3.117188 0.940159,-2.742046 1.690586,-5.474478 2.753906,-7.984375 1.92973,-4.552616 4.098081,-9.037898 6.152344,-13.607422 l 0,-0.002 c 0.573852,-1.275196 1.20089,-2.632282 1.587891,-4.125 0.494695,-1.908476 -0.17453,-3.928324 -1.775391,-5.162109 -0.817478,-0.630292 -1.752922,-0.906818 -2.677734,-0.90625 z"
     id="shapePath3"
     inkscape:connector-curvature="0" />
</svg>
