<?xml version="1.0" encoding="UTF-8" standalone="no"?>
<svg
   xmlns:dc="http://purl.org/dc/elements/1.1/"
   xmlns:cc="http://creativecommons.org/ns#"
   xmlns:rdf="http://www.w3.org/1999/02/22-rdf-syntax-ns#"
   xmlns:svg="http://www.w3.org/2000/svg"
   xmlns="http://www.w3.org/2000/svg"
   xmlns:sodipodi="http://sodipodi.sourceforge.net/DTD/sodipodi-0.dtd"
   xmlns:inkscape="http://www.inkscape.org/namespaces/inkscape"
   version="1.1"
   viewBox="0 0 130 130"
   id="svg3430"
   inkscape:version="0.91 r13725"
   sodipodi:docname="paper.svg">
  <metadata
     id="metadata3437">
    <rdf:RDF>
      <cc:Work
         rdf:about="">
        <dc:format>image/svg+xml</dc:format>
        <dc:type
           rdf:resource="http://purl.org/dc/dcmitype/StillImage" />
      </cc:Work>
    </rdf:RDF>
  </metadata>
  <defs
     id="defs3435" />
  <sodipodi:namedview
     pagecolor="#ffffff"
     bordercolor="#666666"
     borderopacity="1"
     objecttolerance="10"
     gridtolerance="10"
     guidetolerance="10"
     inkscape:pageopacity="0"
     inkscape:pageshadow="2"
     inkscape:window-width="1436"
     inkscape:window-height="742"
     id="namedview3433"
     showgrid="false"
     inkscape:zoom="1.8153846"
     inkscape:cx="12.118644"
     inkscape:cy="65"
     inkscape:window-x="0"
     inkscape:window-y="0"
     inkscape:window-maximized="0"
     inkscape:current-layer="svg3430" />
  <!-- <circle cx="65" cy="65" r="65" stroke-width="8" stroke="white" fill="#5C6BC0"/> -->
  <path
     style="color:#000000;font-style:normal;font-variant:normal;font-weight:normal;font-stretch:normal;font-size:medium;line-height:normal;font-family:sans-serif;text-indent:0;text-align:start;text-decoration:none;text-decoration-line:none;text-decoration-style:solid;text-decoration-color:#000000;letter-spacing:normal;word-spacing:normal;text-transform:none;direction:ltr;block-progression:tb;writing-mode:lr-tb;baseline-shift:baseline;text-anchor:start;white-space:normal;clip-rule:nonzero;display:inline;overflow:visible;visibility:visible;opacity:1;isolation:auto;mix-blend-mode:normal;color-interpolation:sRGB;color-interpolation-filters:linearRGB;solid-color:#000000;solid-opacity:1;fill:#ffffff;fill-opacity:1;fill-rule:nonzero;stroke:none;stroke-width:2.5;stroke-linecap:butt;stroke-linejoin:miter;stroke-miterlimit:2;stroke-dasharray:none;stroke-dashoffset:0;stroke-opacity:1;color-rendering:auto;image-rendering:auto;shape-rendering:auto;text-rendering:auto;enable-background:accumulate"
     d="m 87.162109,18.923828 c -0.717161,0.05612 -1.454349,0.244568 -2.191406,0.542969 -3.113425,1.261601 -5.850098,3.11749 -8.337891,5.189453 -3.749064,3.12069 -7.316866,6.404848 -10.953124,9.558594 l 0,0.002 c -0.929409,0.806556 -1.953205,1.60491 -2.960938,2.408203 -0.183611,-0.304187 -0.350344,-0.618502 -0.640625,-0.849609 -0.829496,-0.660404 -1.933917,-0.746089 -3.003906,-0.535157 -1.372282,0.270526 -2.55114,0.803277 -3.632813,1.166016 -2.1197,0.711105 -4.049911,1.610153 -5.902344,1.933594 -2.795724,0.489003 -4.99432,1.916274 -6.527343,4.267578 -2.495135,3.827308 -5.455042,7.338809 -8.580078,10.759766 -0.538468,0.589878 -0.919254,1.284224 -1.166016,1.99414 -1.307393,3.759129 -2.611751,7.526925 -3.845703,11.326172 -0.976805,3.007409 -2.647279,6.164407 -2.652344,9.972656 -0.02436,0.01968 -0.0651,0.05164 -0.04883,0.04297 l -0.002,0.002 -0.0039,0.002 c -1.585357,0.852975 -3.233871,1.650097 -4.884766,2.515625 -0.755198,0.395081 -0.873855,0.856572 -0.884766,0.869141 l 0.939453,2.068359 c -0.01606,-6.2e-5 0.103269,0.01548 0.314454,0.03125 0.211184,0.01578 0.560943,0.0534 1.013672,-0.171875 1.602848,-0.788283 3.122038,-1.633088 4.646484,-2.341797 1.140774,-0.530291 2.006089,-1.710897 2.074219,-3.02539 0.06228,-1.179323 0.111774,-2.279901 0.388671,-3.115235 l -0.002,0 c 1.683394,-5.065155 3.451914,-10.113367 5.208985,-15.167968 L 35.75,58.601562 c 0.07695,0.08011 0.15352,0.160281 0.232422,0.240235 l 0.708984,0.716797 0.84961,-0.539063 c 0.155705,-0.09859 0.456164,-0.236002 0.814453,-0.535156 0.686985,-0.57361 1.224083,-1.133485 1.736328,-1.496094 l 0,0.002 c 4.263001,-3.011064 8.46351,-6.072331 12.771484,-8.925781 5.744112,-3.802711 10.965311,-8.184714 16.091797,-12.632812 1.728951,-1.500486 3.471547,-2.994032 5.212891,-4.492188 1.041014,-0.894804 2.165169,-1.780079 3.242187,-2.794922 2.301631,-2.16787 4.941377,-3.884789 7.789063,-5.365234 0.562453,-0.292133 1.284072,-0.501678 2.0625,-0.699219 0.76369,-0.19384 1.136876,-0.04394 1.714843,0.613281 0.313156,0.356914 0.464636,0.662161 0.509766,0.894532 0.04513,0.23237 0.03425,0.426674 -0.166016,0.78125 -0.272238,0.481042 -0.586634,0.923105 -0.90039,1.214843 -5.6102,5.201387 -11.539255,10.158117 -16.904297,15.833985 -1.847331,1.953652 -4.114685,3.65668 -6.296875,5.585937 -0.44006,0.388467 -0.53084,0.694463 -0.544922,0.714844 l -0.570312,0.826172 0.683593,0.736328 c 0.07029,0.07561 0.139326,0.149012 0.205079,0.21875 l 0.660156,0.699219 0.845703,-0.458985 c 0.216757,-0.117615 0.719684,-0.251414 1.277344,-0.74414 2.011155,-1.778606 4.17621,-3.514258 6.134765,-5.550782 6.675825,-6.939722 13.968415,-13.238872 21.375,-19.466796 0.675477,-0.568082 1.437172,-0.810503 2.369141,-0.833985 1.273024,-0.03238 2.314616,1.656521 1.619141,3.138672 -0.328599,0.700582 -0.870742,1.420848 -1.47461,2.126953 -1.75831,2.056329 -3.564861,4.08154 -5.380859,6.107422 -5.188588,5.786069 -10.197569,11.628431 -16.117188,16.47461 -1.042436,0.853011 -1.746476,1.873822 -2.427734,2.689453 l -0.002,0.002 c -0.481325,0.577589 -0.543337,1.057935 -0.609375,1.203125 l -0.41211,0.902343 0.78711,0.605469 c 0.07677,0.05906 0.155147,0.120696 0.234375,0.181641 l 0.80664,0.61914 0.771485,-0.662109 c 0.09869,-0.08476 0.34049,-0.237058 0.626953,-0.560547 0.997417,-1.127992 1.742143,-2.257908 2.574219,-2.919922 l 0.002,-0.002 c 4.415233,-3.503038 8.061346,-7.653804 11.759765,-11.625 2.701862,-2.900914 5.24205,-5.911913 7.833985,-8.830078 0.571127,-0.642518 0.805715,-0.666642 1.414062,-0.376953 0.536324,0.255541 1.022654,0.877032 1.232424,1.615234 0.20976,0.738202 0.12007,1.505828 -0.20117,1.990235 l 0,0.002 c -2.826156,4.263229 -5.628606,8.492917 -8.728519,12.501953 -2.541329,3.286269 -5.154759,6.387155 -8.203125,9.082031 -1.053552,0.931948 -2.071155,1.975595 -2.935547,3.142578 -1.3325,1.798668 -2.494247,3.670853 -3.669922,5.478516 l -0.002,0.002 0,0.002 c -0.282714,0.437592 -0.269238,0.791248 -0.271485,0.996094 -0.0022,0.204846 -5.37e-4,0.316874 0.002,0.287109 l 1.96875,1.125 c 0.04685,-0.0332 0.42516,-0.1416 0.847657,-0.677734 l 0,-0.002 0.002,0 c 0.349177,-0.445394 0.51773,-0.841141 0.658203,-1.080078 l 0,-0.002 c 1.530146,-2.586682 3.350882,-4.917935 5.5,-7.03711 3.636684,-3.583439 7.161138,-7.257233 10.712891,-10.880859 0.648858,-0.661186 1.144336,-1.292855 1.638672,-1.716797 0.468225,-0.402047 0.884774,-0.279905 0.980468,-0.130859 0.524947,0.818272 0.753989,1.417799 0.566406,1.939453 l 0,0.002 c -0.508557,1.420455 -1.084493,2.805381 -1.802734,4.041016 -2.295553,3.948697 -5.455007,7.375749 -8.552734,10.972656 -3.638379,4.226047 -7.527446,8.395879 -10.390625,13.507812 -0.433722,0.774805 -1.071754,1.538412 -1.767578,2.160156 -4.711738,4.208446 -9.395601,8.428546 -14.199219,12.486329 -4.615026,3.898339 -9.480389,7.257998 -15.164063,9.144529 -1.472982,0.48951 -2.745033,1.20908 -3.953125,1.75391 l -0.939453,0.42383 0.238281,1.0039 c 0.03019,0.12747 0.05919,0.24559 0.08594,0.35352 l 0.277344,1.11914 1.136718,-0.18555 c 0.22607,-0.0369 0.745484,0.009 1.441407,-0.28711 1.623692,-0.68841 3.093172,-1.48287 4.548828,-1.99414 l 0.002,0 c 3.651428,-1.28455 6.837628,-3.27214 9.841797,-5.466795 5.946027,-4.345446 11.370451,-9.242474 16.773437,-14.101563 2.437217,-2.192764 4.389247,-4.692104 6.078125,-7.421874 1.112324,-1.798979 2.421463,-3.522638 3.800782,-5.191407 2.419664,-2.92818 4.974167,-5.7777 7.478515,-8.703125 2.586637,-3.021763 5.165007,-6.165888 7.023434,-9.898437 l -0.002,0 c 0.47664,-0.956587 0.84888,-1.980249 1.09375,-3.021485 l 0,-0.002 c 0.25867,-1.103999 0.0523,-2.201879 -0.34961,-3.171875 -0.40186,-0.969996 -0.97632,-1.857166 -1.98437,-2.34375 -0.44865,-0.216496 -0.935536,-0.324712 -1.427738,-0.34375 1.403088,-2.025461 2.805348,-4.053561 4.214848,-6.072265 l -0.002,0 c 0.88564,-1.268011 1.21095,-2.875698 0.69922,-4.416016 -0.34926,-1.053898 -0.83714,-2.079309 -1.67969,-2.888672 -0.39144,-0.376026 -0.87519,-0.671753 -1.40625,-0.902344 0.49782,-0.713392 1.08557,-1.420409 1.44532,-2.486328 0.65153,-1.932669 0.20696,-3.901439 -0.97657,-5.210937 -1.18312,-1.309048 -3.099108,-1.945749 -5.078121,-1.476563 l -0.002,0 c -1.292311,0.30635 -2.334562,1.013133 -3.21875,1.609375 l -0.002,0.002 c -0.315138,0.21297 -0.489817,0.417431 -0.763671,0.644532 -0.04921,-0.168426 0.01243,-0.250741 -0.06641,-0.427735 -0.620356,-1.388848 -1.661047,-2.444883 -2.974609,-2.896484 -0.656781,-0.225801 -1.355104,-0.302211 -2.072266,-0.246094 z m -26.955078,19.34375 c 0.141392,0.282097 0.161957,0.330101 -0.277343,0.703125 l -0.002,0 c -0.416517,0.354151 -0.744854,0.668519 -1.033203,0.869141 l -0.002,0 c -4.362636,3.040474 -8.781554,6.030314 -13.130859,9.148437 -3.166825,2.269811 -6.205331,4.673846 -9.259766,7.009766 -0.164708,0.125875 -0.140362,0.166484 -0.246094,0.283203 0.107191,-0.278775 0.234304,-0.530522 0.294922,-0.595703 l 0,-0.002 0.002,0 c 3.528698,-3.809091 6.750667,-7.862348 9.673828,-12.148438 l -0.002,0 c 0.780082,-1.143064 1.616567,-1.694752 2.970703,-1.896484 2.771019,-0.414279 5.372554,-1.314881 7.851563,-2.517578 0.774418,-0.375749 1.74351,-0.617206 2.757813,-0.826172 0.202643,-0.04135 0.346524,-0.03442 0.402343,-0.02734 z"
     id="shapePath2"
     inkscape:connector-curvature="0" />
</svg>
