<?xml version="1.0" encoding="UTF-8" standalone="no"?>
<svg
   xmlns:dc="http://purl.org/dc/elements/1.1/"
   xmlns:cc="http://creativecommons.org/ns#"
   xmlns:rdf="http://www.w3.org/1999/02/22-rdf-syntax-ns#"
   xmlns:svg="http://www.w3.org/2000/svg"
   xmlns="http://www.w3.org/2000/svg"
   xmlns:sodipodi="http://sodipodi.sourceforge.net/DTD/sodipodi-0.dtd"
   xmlns:inkscape="http://www.inkscape.org/namespaces/inkscape"
   version="1.1"
   viewBox="0 0 130 130"
   id="svg3373"
   inkscape:version="0.91 r13725"
   sodipodi:docname="rock.svg">
  <metadata
     id="metadata3380">
    <rdf:RDF>
      <cc:Work
         rdf:about="">
        <dc:format>image/svg+xml</dc:format>
        <dc:type
           rdf:resource="http://purl.org/dc/dcmitype/StillImage" />
      </cc:Work>
    </rdf:RDF>
  </metadata>
  <defs
     id="defs3378" />
  <sodipodi:namedview
     pagecolor="#ffffff"
     bordercolor="#666666"
     borderopacity="1"
     objecttolerance="10"
     gridtolerance="10"
     guidetolerance="10"
     inkscape:pageopacity="0"
     inkscape:pageshadow="2"
     inkscape:window-width="1247"
     inkscape:window-height="731"
     id="namedview3376"
     showgrid="false"
     inkscape:zoom="4.0692308"
     inkscape:cx="65"
     inkscape:cy="65"
     inkscape:window-x="90"
     inkscape:window-y="0"
     inkscape:window-maximized="0"
     inkscape:current-layer="svg3373" />
  <!-- <circle cx="65" cy="65" r="65" stroke="#fff" stroke-width="8" fill="#6D4C41"/> -->
  <path
     style="color:#000000;font-style:normal;font-variant:normal;font-weight:normal;font-stretch:normal;font-size:medium;line-height:normal;font-family:sans-serif;text-indent:0;text-align:start;text-decoration:none;text-decoration-line:none;text-decoration-style:solid;text-decoration-color:#000000;letter-spacing:normal;word-spacing:normal;text-transform:none;direction:ltr;block-progression:tb;writing-mode:lr-tb;baseline-shift:baseline;text-anchor:start;white-space:normal;clip-rule:nonzero;display:inline;overflow:visible;visibility:visible;opacity:1;isolation:auto;mix-blend-mode:normal;color-interpolation:sRGB;color-interpolation-filters:linearRGB;solid-color:#000000;solid-opacity:1;fill:#ffffff;fill-opacity:1;fill-rule:nonzero;stroke:none;stroke-width:2.5;stroke-linecap:butt;stroke-linejoin:miter;stroke-miterlimit:2;stroke-dasharray:none;stroke-dashoffset:0;stroke-opacity:1;color-rendering:auto;image-rendering:auto;shape-rendering:auto;text-rendering:auto;enable-background:accumulate"
     d="m 74.773438,17.439453 c -0.776223,-0.08384 -1.551392,0.01217 -2.257813,0.226563 -2.958558,0.898557 -5.494115,2.535561 -7.669922,4.626953 -0.24767,0.237612 -0.540597,0.540409 -0.765625,1 l -0.002,0.002 c -1.320646,2.702867 -3.497237,4.922116 -5.671875,7.339844 -3.775756,4.19632 -6.344598,9.047074 -7.621094,14.554687 -0.689333,2.975806 -1.4044,5.943109 -2.148437,8.904297 -0.226988,0.900526 -0.431146,1.689475 -0.695313,2.056641 l 0,0.002 c -2.023556,2.817478 -4.489588,4.855738 -7.798828,5.783203 -1.769985,0.496838 -3.680848,0.893916 -5.568359,1.619141 -4.16681,1.600529 -8.266824,3.326865 -12.363281,5.017578 l -0.002,0 0,0.002 c -0.503712,0.208913 -0.701504,0.525429 -0.826172,0.707031 -0.124667,0.181602 -0.191745,0.290391 -0.179687,0.275391 l -0.736328,0.916015 0.867187,0.791016 c 0.07617,0.0695 0.155023,0.142868 0.238282,0.21875 l 0.570312,0.519531 0.720703,-0.277344 c 0.258252,-0.09904 0.55244,-0.202682 0.871094,-0.335937 2.70187,-1.131905 5.346238,-2.31843 8.015625,-3.34375 2.674374,-1.026202 5.27841,-2.1007 7.894531,-2.705078 4.150809,-0.957632 7.419366,-3.225957 10.052735,-6.306641 0.800722,-0.93827 1.334833,-2.06207 1.679687,-3.154297 0.580167,-1.839475 0.930623,-3.674469 1.373047,-5.404297 0.706923,-2.763795 1.272743,-5.503676 2.130859,-8.070312 1.374752,-4.111939 3.865287,-7.614163 6.896485,-10.878906 1.383411,-1.489751 2.926412,-3.081635 4.007812,-5.048829 1.718899,-3.127729 4.423554,-4.671768 7.798828,-5.853515 0.617525,-0.215551 1.074013,-0.167095 1.695313,0.251953 0.710953,0.481111 1.431312,0.563849 2.09375,0.544922 2.180057,-0.05691 4.271782,-0.28288 6.267578,-0.240234 l 0,-0.002 c 2.710925,0.05905 4.693287,0.706413 6.123047,3.076172 0.46826,0.775767 0.526553,1.391806 0.419922,2.042969 -0.741523,-0.296237 -1.383122,-0.601677 -1.824219,-1.144531 l 0,0.002 c -0.791305,-0.975504 -1.854143,-1.327675 -2.943359,-1.365235 -1.632733,-0.05592 -3.175352,0.162305 -4.617188,0.273438 -0.635974,0.04934 -1.226544,0.135324 -1.777344,0.197266 l -1.0625,0.11914 -0.04687,1.066406 c -0.0053,0.119419 -0.009,0.233309 -0.01367,0.337891 l -0.05078,1.140625 1.132813,0.152344 c 0.202432,0.02734 0.633203,0.192536 1.3125,0.134766 l 0.0039,0 0.002,0 c 1.380327,-0.122399 2.716598,-0.304173 4.021484,-0.423829 1.212801,-0.110114 1.83432,0.176179 2.472657,1.216797 0.353314,0.576239 0.724077,1.131292 1.101562,1.671875 0.25921,0.371996 0.561184,0.82632 1.009766,1.259766 l 0.0039,0.0039 0.002,0.002 c 0.39338,0.375143 0.757266,0.417534 0.960938,0.453125 0.203672,0.03559 0.314179,0.05131 0.28125,0.04297 l 0.921875,-1.068359 c 0.849206,0.853886 1.624656,1.767819 2.355469,2.716797 C 93.0515,32.938727 92.730924,32.69147 92.3125,32.623047 l -0.002,0 c -1.144356,-0.187756 -2.332874,-0.504113 -3.59375,-0.771485 -0.747104,-0.168464 -0.796129,0.03969 -1.126953,0.101563 l -0.519532,2.228516 c 0.303858,0.227341 0.437146,0.62499 1.31836,0.841797 l 0.002,0 c 0.938501,0.229433 1.95085,0.49669 3.048828,0.605468 1.398161,0.13812 1.997365,0.550912 2.501953,1.832032 0.358094,0.910706 0.801536,1.742582 1.22461,2.529296 l -0.002,0 c 0.331573,0.617335 0.716047,0.864087 0.828126,0.988282 l 0.689453,0.763672 0.539062,-0.324219 c 0.385571,0.501114 0.752659,0.806049 1.087891,1.384765 0.293511,0.506694 0.294873,0.767528 0.49414,1.248047 l -0.417968,0.123047 0.298828,1.166016 c 0.03289,0.128703 -0.06143,0.713745 0.478515,1.480468 l 0.002,0 c 0.935208,1.324068 1.342688,2.46622 1.027348,3.933594 l 0.002,-0.0039 c -0.0963,0.440676 -0.281909,1.030629 0.33789,1.740234 0.15553,0.178069 0.40294,0.175293 0.62891,0.263672 0.0947,0.435504 0.18901,0.878929 0.29296,1.306641 0.46457,1.913311 0.20205,3.07901 -1.34179,4.316406 -0.748965,0.600927 -1.479632,1.407619 -1.810549,2.501953 -0.27892,0.923501 -0.823665,1.52011 -1.675781,2.216797 -0.803112,0.656439 -1.549459,1.304808 -2.306641,1.849609 -5.006669,3.596653 -9.774793,7.499948 -14.123047,11.9375 -1.754495,1.790951 -3.847879,3.175037 -6.177734,4.316407 -2.573872,1.259507 -5.026267,2.664478 -7.492187,3.943359 -2.169807,1.124418 -4.323285,2.242373 -6.503907,3.25586 -1.352316,0.629202 -2.84305,1.125105 -4.365234,1.708984 -4.736206,1.819068 -8.865768,4.538013 -13.009766,7 l -0.78125,0.464844 0.201172,0.886718 c 0.02941,0.130377 0.06117,0.279501 0.105469,0.445313 l 0.320313,1.195313 1.199218,-0.306641 c 0.136089,-0.03493 0.663263,0.01801 1.369141,-0.431641 4.112464,-2.618106 8.260272,-5.036204 12.742187,-6.748047 3.28341,-1.254838 6.731501,-2.428668 9.921875,-4.486328 2.042748,-1.318403 4.22089,-2.483378 6.447266,-3.517578 3.315815,-1.54015 6.352517,-3.516974 8.945313,-6.173828 3.651417,-3.742826 7.683981,-7.058943 11.947265,-10.148438 1.672775,-1.212216 3.195132,-2.558028 4.695313,-3.847656 l 0.002,-0.002 c 0.686851,-0.587052 0.878761,-1.207697 1.042971,-1.458984 l 0,-0.002 c 0.69078,-1.060673 1.12258,-2.02663 1.58593,-2.435546 2.10624,-1.859536 2.68712,-4.406172 2.1543,-6.925782 -0.39738,-1.875689 -0.83642,-3.713536 -1.17773,-5.535156 l 0,-0.002 c -0.51914,-2.780097 -1.30563,-5.590927 -3.11524,-8.072266 l 0,-0.002 c -0.443756,-0.607499 -0.613473,-1.062708 -0.609372,-1.789062 l 0,-0.002 c 0.0074,-1.006452 -0.376675,-1.835089 -0.74414,-2.50586 -1.560843,-2.846729 -3.469459,-5.471149 -5.791016,-7.78125 -0.11469,-0.114428 -0.06593,-0.07803 -0.05469,-0.03125 0.01124,0.04678 -0.0071,0.0043 0.03125,-0.21289 l 0,-0.002 c 0.143253,-0.816539 0.627811,-2.037587 0.08008,-3.433594 -1.101483,-2.813498 -3.207846,-5.161511 -6.52539,-5.81836 l -0.002,-0.002 C 83.449683,17.79648 80.336236,17.982047 77.308594,18.259766 l -0.002,0 -0.0039,0 c -0.207811,0.01976 -0.488452,-0.121794 -0.267578,0.03711 -0.708653,-0.50871 -1.485496,-0.773581 -2.261718,-0.857422 z"
     id="shapePath2"
     inkscape:connector-curvature="0" />
</svg>
