<?xml version="1.0"?>
<svg version="1.1" xmlns="http://www.w3.org/2000/svg" xmlns:xlink="http://www.w3.org/1999/xlink" viewBox="0 0 130 130">
    <!-- <circle cx="65" cy="65" r="65" stroke-width="8" stroke="white" fill="#5C6BC0"/> -->
            <path id="shapePath2" d="M91.381,24.885 C91.283,24.085 91.366,23.245 91.068,22.576 C90.042,20.279 87.994,19.591 85.44,20.625 C82.486,21.822 79.855,23.598 77.432,25.616 C73.715,28.71 70.153,31.99 66.498,35.16 C65.106,36.368 63.642,37.49 62.154,38.696 C61.912,36.831 61.061,36.123 59.316,36.467 C58.129,36.701 56.995,37.204 55.838,37.592 C53.814,38.271 51.834,39.208 49.755,39.571 C47.228,40.013 45.436,41.179 44.059,43.291 C41.508,47.204 38.502,50.765 35.355,54.21 C34.957,54.646 34.642,55.21 34.447,55.771 C33.14,59.529 31.838,63.29 30.609,67.074 C29.556,70.316 27.899,73.402 27.99,76.959 C27.998,77.242 27.61,77.645 27.306,77.807 C25.689,78.677 24.035,79.477 22.408,80.33 C22.192,80.443 22.058,80.714 21.887,80.911 C22.145,80.912 22.448,81.003 22.655,80.9 C24.221,80.13 25.749,79.279 27.33,78.544 C28.212,78.134 28.633,77.571 28.684,76.587 C28.745,75.432 28.775,74.223 29.133,73.143 C31.044,67.393 33.05,61.673 35.037,55.948 C35.174,55.553 35.356,55.134 35.635,54.834 C39.121,51.071 42.304,47.066 45.193,42.83 C46.13,41.457 47.353,40.65 49.011,40.403 C51.633,40.011 54.11,39.156 56.501,37.996 C57.447,37.537 58.516,37.285 59.555,37.071 C60.197,36.94 60.957,36.945 61.331,37.685 C61.73,38.477 61.487,39.287 60.738,39.923 C60.364,40.241 60.009,40.586 59.608,40.865 C55.236,43.912 50.821,46.9 46.49,50.005 C43.355,52.252 40.326,54.646 37.261,56.99 C37.012,57.18 36.852,57.485 36.651,57.736 C36.724,57.812 36.798,57.888 36.873,57.964 C37.102,57.819 37.349,57.696 37.555,57.524 C38.167,57.013 38.723,56.427 39.37,55.969 C43.623,52.965 47.834,49.897 52.173,47.023 C57.839,43.272 63.02,38.926 68.136,34.487 C69.869,32.983 71.613,31.489 73.353,29.992 C74.421,29.074 75.53,28.199 76.554,27.234 C78.963,24.965 81.705,23.187 84.623,21.67 C85.345,21.295 86.159,21.07 86.955,20.868 C88.133,20.569 89.119,20.961 89.917,21.869 C90.74,22.807 91.054,23.842 90.409,24.984 C90.1,25.53 89.727,26.075 89.271,26.499 C83.629,31.73 77.723,36.67 72.424,42.276 C70.478,44.334 68.177,46.057 66.046,47.941 C65.901,48.069 65.817,48.265 65.703,48.43 C65.769,48.501 65.836,48.572 65.902,48.642 C66.254,48.451 66.656,48.317 66.948,48.059 C68.989,46.254 71.126,44.538 73.01,42.579 C79.739,35.584 87.066,29.256 94.481,23.021 C95.393,22.254 96.472,21.924 97.623,21.895 C99.903,21.837 101.466,24.555 100.406,26.814 C99.997,27.686 99.381,28.484 98.749,29.223 C96.979,31.293 95.165,33.324 93.348,35.351 C88.172,41.123 83.126,47.02 77.093,51.959 C76.229,52.666 75.557,53.615 74.832,54.483 C74.622,54.735 74.54,55.094 74.399,55.404 C74.477,55.464 74.556,55.525 74.634,55.585 C74.804,55.439 74.993,55.31 75.14,55.144 C76.049,54.116 76.817,52.913 77.874,52.073 C82.175,48.661 85.783,44.562 89.498,40.573 C92.172,37.702 94.705,34.7 97.311,31.766 C98.151,30.821 99.169,30.6 100.198,31.09 C102.068,31.981 102.874,34.797 101.734,36.516 C98.908,40.779 96.088,45.036 92.951,49.093 C90.389,52.406 87.726,55.572 84.587,58.347 C83.582,59.236 82.626,60.221 81.829,61.297 C80.537,63.041 79.387,64.891 78.202,66.713 C78.087,66.891 78.149,67.184 78.129,67.423 C78.328,67.282 78.572,67.176 78.717,66.992 C78.942,66.705 79.097,66.364 79.283,66.048 C80.867,63.37 82.757,60.948 84.982,58.754 C88.602,55.187 92.122,51.518 95.68,47.888 C96.259,47.298 96.772,46.634 97.397,46.098 C98.338,45.29 99.679,45.361 100.244,46.241 C100.831,47.156 101.322,48.199 100.934,49.278 C100.412,50.736 99.812,52.192 99.036,53.527 C96.649,57.633 93.427,61.112 90.349,64.686 C86.69,68.936 82.87,73.047 80.102,77.989 C79.587,78.909 78.866,79.766 78.077,80.471 C73.368,84.677 68.675,88.906 63.851,92.981 C59.176,96.93 54.177,100.398 48.275,102.357 C46.954,102.796 45.717,103.489 44.442,104.064 C44.469,104.178 44.498,104.292 44.526,104.405 C44.912,104.342 45.329,104.351 45.679,104.202 C47.229,103.545 48.72,102.735 50.303,102.179 C53.788,100.953 56.869,99.04 59.823,96.882 C65.7,92.587 71.094,87.72 76.498,82.86 C78.831,80.761 80.707,78.363 82.349,75.709 C83.504,73.841 84.848,72.074 86.249,70.379 C88.69,67.425 91.249,64.57 93.741,61.659 C96.315,58.652 98.818,55.586 100.595,52.017 C101.028,51.148 101.368,50.21 101.59,49.266 C101.937,47.785 101.028,45.69 99.93,45.16 C98.755,44.593 97.42,45.047 96.134,46.452 C95.692,46.936 95.253,47.424 94.813,47.91 C94.746,47.726 94.792,47.629 94.852,47.541 C97.311,43.994 99.763,40.442 102.234,36.903 C102.952,35.875 103.169,34.795 102.771,33.597 C102.143,31.702 101.104,30.274 98.782,30.195 C99.044,29.882 99.264,29.673 99.42,29.424 C100.015,28.469 100.781,27.567 101.132,26.527 C102.172,23.442 99.699,20.707 96.549,21.455 C95.552,21.691 94.608,22.299 93.739,22.885 C92.863,23.477 92.111,24.254 91.381,24.885 Z" style="stroke:#ffffff;stroke-opacity:1;stroke-width:2.5;stroke-linejoin:miter;stroke-miterlimit:2;stroke-linecap:butt;fill:none;"/>
</svg>
