<?xml version="1.0"?>
<svg version="1.1" xmlns="http://www.w3.org/2000/svg" xmlns:xlink="http://www.w3.org/1999/xlink" viewBox="0 0 130 130">
	<!-- <circle cx="65" cy="65" r="65" stroke="#fff" stroke-width="8" fill="#6D4C41"/> -->
            <path id="shapePath2" d="M43.285,98.183 C47.461,95.702 51.532,93.031 56.104,91.275 C57.59,90.705 59.108,90.202 60.548,89.532 C62.762,88.503 64.931,87.376 67.1,86.252 C69.597,84.957 72.042,83.558 74.568,82.322 C76.991,81.135 79.212,79.673 81.089,77.757 C85.374,73.384 90.084,69.526 95.048,65.96 C95.868,65.37 96.633,64.704 97.416,64.064 C98.348,63.302 99.124,62.475 99.497,61.24 C99.712,60.529 100.296,59.831 100.893,59.352 C102.757,57.858 103.207,55.99 102.667,53.766 C102.501,53.083 102.359,52.394 102.187,51.616 C101.432,52.008 101.294,51.565 101.414,51.016 C101.812,49.164 101.236,47.588 100.185,46.1 C99.985,45.816 99.986,45.39 99.894,45.03 C100.002,44.998 100.11,44.965 100.217,44.931 C100.391,45.211 100.564,45.491 100.789,45.856 C100.713,44.031 98.495,40.219 96.715,38.806 C96.884,39.238 97.029,39.612 97.175,39.987 C97.091,40.038 97.006,40.09 96.921,40.141 C96.699,39.895 96.418,39.681 96.266,39.398 C95.846,38.617 95.429,37.827 95.105,37.003 C94.463,35.373 93.294,34.556 91.563,34.385 C90.594,34.289 89.637,34.042 88.688,33.81 C88.436,33.748 88.232,33.49 87.819,33.181 C88.22,33.106 88.34,33.048 88.442,33.071 C89.666,33.33 90.878,33.655 92.11,33.857 C93.654,34.109 94.696,34.887 95.451,36.28 C95.95,37.2 96.783,37.94 97.467,38.761 C97.592,38.692 97.718,38.621 97.844,38.552 C97.696,37.993 97.644,37.384 97.382,36.884 C95.895,34.042 94.015,31.465 91.73,29.222 C91.09,28.593 90.111,28.311 89.287,27.869 C89.219,27.945 89.15,28.022 89.082,28.098 C89.46,28.61 89.848,29.115 90.209,29.637 C90.328,29.809 90.378,30.028 90.46,30.225 C90.227,30.166 89.924,30.181 89.773,30.037 C89.447,29.722 89.182,29.337 88.92,28.961 C88.552,28.434 88.194,27.899 87.858,27.351 C87.017,25.98 85.783,25.399 84.208,25.542 C82.866,25.665 81.53,25.847 80.188,25.966 C79.847,25.995 79.495,25.885 79.147,25.838 C79.152,25.726 79.156,25.614 79.161,25.502 C79.739,25.437 80.315,25.353 80.895,25.308 C82.387,25.193 83.884,24.987 85.373,25.038 C86.069,25.062 86.968,25.422 87.389,25.941 C88.36,27.136 89.706,27.444 91.009,27.97 C91.712,26.459 91.736,25.104 90.833,23.608 C89.169,20.85 86.605,19.993 83.667,19.929 C81.561,19.884 79.449,20.116 77.338,20.171 C76.883,20.184 76.344,20.086 75.979,19.839 C75.082,19.234 74.126,19.11 73.172,19.443 C69.664,20.671 66.597,22.405 64.69,25.875 C63.717,27.645 62.253,29.176 60.861,30.675 C57.759,34.016 55.146,37.667 53.695,42.007 C52.805,44.669 52.236,47.439 51.539,50.164 C51.084,51.943 50.736,53.755 50.185,55.502 C49.88,56.468 49.399,57.457 48.747,58.221 C46.245,61.148 43.238,63.228 39.363,64.122 C36.61,64.758 33.956,65.86 31.303,66.878 C28.59,67.92 25.935,69.112 23.252,70.236 C22.977,70.351 22.694,70.451 22.415,70.558 C22.336,70.486 22.257,70.413 22.177,70.34 C22.345,70.131 22.47,69.818 22.687,69.728 C26.789,68.035 30.88,66.312 35.022,64.721 C36.784,64.044 38.656,63.651 40.48,63.139 C44.098,62.125 46.815,59.862 48.956,56.881 C49.451,56.193 49.634,55.251 49.849,54.398 C50.595,51.429 51.312,48.454 52.003,45.471 C53.233,40.164 55.691,35.521 59.336,31.47 C61.483,29.083 63.765,26.784 65.202,23.843 C65.32,23.602 65.514,23.384 65.711,23.195 C67.773,21.213 70.132,19.697 72.878,18.863 C74.051,18.507 75.225,18.536 76.306,19.312 C76.584,19.512 77.054,19.539 77.422,19.504 C80.42,19.229 83.407,19.063 86.395,19.653 C89.284,20.225 90.999,22.142 92.001,24.703 C92.309,25.488 92.013,26.552 91.853,27.464 C91.753,28.031 91.787,28.374 92.225,28.811 C94.454,31.029 96.293,33.554 97.803,36.308 C98.118,36.883 98.397,37.572 98.392,38.205 C98.386,39.187 98.681,39.974 99.242,40.742 C100.888,42.999 101.633,45.604 102.138,48.309 C102.487,50.172 102.929,52.019 103.322,53.874 C103.794,56.106 103.373,58.005 101.563,59.603 C100.78,60.294 100.35,61.386 99.758,62.295 C99.494,62.699 99.301,63.187 98.948,63.488 C97.438,64.786 95.94,66.109 94.331,67.275 C90.027,70.394 85.937,73.754 82.222,77.562 C79.753,80.092 76.856,81.984 73.646,83.475 C71.377,84.529 69.148,85.72 67.047,87.076 C64.022,89.027 60.666,90.18 57.356,91.445 C52.748,93.205 48.528,95.672 44.389,98.307 C44.108,98.486 43.719,98.495 43.38,98.582 C43.345,98.451 43.315,98.316 43.285,98.183 Z" style="stroke:#ffffff;stroke-opacity:1;stroke-width:2.5;stroke-linejoin:miter;stroke-miterlimit:2;stroke-linecap:butt;fill:none;"/>
</svg>
