<?xml version="1.0"?>
<svg version="1.1" xmlns="http://www.w3.org/2000/svg" xmlns:xlink="http://www.w3.org/1999/xlink" viewBox="0 0 130 130">
            <path id="shapePath1" d="M89.7969,101.712 C85.6209,99.231 81.5499,96.56 76.9779,94.804 C75.4919,94.2339 73.9739,93.731 72.5339,93.0609 C70.3199,92.032 68.1509,90.905 65.9819,89.7809 C63.4849,88.4859 61.0399,87.0869 58.5139,85.851 C56.0909,84.664 53.8699,83.202 51.9929,81.2859 C47.7079,76.9129 42.9979,73.0549 38.0339,69.489 C37.2139,68.899 36.4489,68.233 35.6659,67.593 C34.7339,66.8309 33.9579,66.004 33.5849,64.769 C33.3699,64.058 32.7859,63.36 32.1889,62.881 C30.3249,61.387 29.8749,59.519 30.4149,57.2949 C30.5809,56.6119 30.7229,55.923 30.8949,55.145 C31.6499,55.5369 31.7879,55.0939 31.6679,54.5449 C31.2699,52.693 31.8459,51.117 32.8969,49.6289 C33.0969,49.345 33.0959,48.9189 33.1879,48.5589 C33.0799,48.527 32.9719,48.4939 32.8649,48.4599 C32.6909,48.7399 32.5179,49.02 32.2929,49.3849 C32.3689,47.5599 34.5869,43.748 36.3669,42.3349 C36.1979,42.7669 36.0529,43.1409 35.9069,43.5159 C35.9909,43.5669 36.0759,43.6189 36.1609,43.6699 C36.3829,43.424 36.6639,43.2099 36.8159,42.9269 C37.2359,42.146 37.6529,41.3559 37.9769,40.5319 C38.6189,38.902 39.7879,38.0849 41.5189,37.9139 C42.4879,37.818 43.4449,37.5709 44.3939,37.339 C44.6459,37.277 44.8499,37.019 45.2629,36.7099 C44.8619,36.6349 44.7419,36.577 44.6399,36.5999 C43.4159,36.859 42.2039,37.1839 40.9719,37.3859 C39.4279,37.638 38.3859,38.416 37.6309,39.8089 C37.1319,40.729 36.2989,41.4689 35.6149,42.29 C35.4899,42.221 35.3639,42.1499 35.2379,42.0809 C35.3859,41.5219 35.4379,40.9129 35.6999,40.4129 C37.1869,37.5709 39.0669,34.9939 41.3519,32.7509 C41.9919,32.1219 42.9709,31.84 43.7949,31.3979 C43.8629,31.4739 43.9319,31.5509 43.9999,31.6269 C43.6219,32.139 43.2339,32.644 42.8729,33.1659 C42.7539,33.338 42.7039,33.5569 42.6219,33.754 C42.8549,33.695 43.1579,33.7099 43.3089,33.5659 C43.6349,33.2509 43.8999,32.866 44.1619,32.49 C44.5299,31.9629 44.8879,31.4279 45.2239,30.8799 C46.0649,29.5089 47.2989,28.928 48.8739,29.0709 C50.2159,29.194 51.5519,29.3759 52.8939,29.4949 C53.2349,29.524 53.5869,29.414 53.9349,29.3669 C53.9299,29.2549 53.9259,29.1429 53.9209,29.0309 C53.3429,28.966 52.7669,28.882 52.1869,28.8369 C50.6949,28.722 49.1979,28.5159 47.7089,28.567 C47.0129,28.591 46.1139,28.951 45.6929,29.47 C44.7219,30.6649 43.3759,30.9729 42.0729,31.4989 C41.3699,29.9879 41.3459,28.6329 42.2489,27.137 C43.9129,24.3789 46.4769,23.5219 49.4149,23.458 C51.5209,23.413 53.6329,23.6449 55.7439,23.6999 C56.1989,23.7129 56.7379,23.6149 57.1029,23.368 C57.9999,22.763 58.9559,22.639 59.9099,22.972 C63.4179,24.1999 66.4849,25.9339 68.3919,29.4039 C69.3649,31.174 70.8289,32.7049 72.2209,34.2039 C75.3229,37.5449 77.9359,41.1959 79.3869,45.5359 C80.2769,48.1979 80.8459,50.9679 81.5429,53.693 C81.9979,55.472 82.3459,57.284 82.8969,59.0309 C83.2019,59.9969 83.6829,60.986 84.3349,61.75 C86.8369,64.6769 89.8439,66.757 93.7189,67.651 C96.4719,68.287 99.1259,69.3889 101.779,70.407 C104.492,71.4489 107.147,72.6409 109.83,73.765 C110.105,73.8799 110.388,73.9799 110.667,74.0869 C110.746,74.015 110.825,73.942 110.905,73.8689 C110.737,73.6599 110.612,73.347 110.395,73.2569 C106.293,71.5639 102.202,69.8409 98.0599,68.25 C96.2979,67.573 94.4259,67.1799 92.6019,66.668 C88.9839,65.6539 86.2669,63.3909 84.1259,60.41 C83.6309,59.722 83.4479,58.7799 83.2329,57.9269 C82.4869,54.958 81.7699,51.9829 81.0789,49 C79.8489,43.693 77.3909,39.0499 73.7459,34.9989 C71.5989,32.6119 69.3169,30.313 67.8799,27.372 C67.7619,27.1309 67.5679,26.913 67.3709,26.7239 C65.3089,24.7419 62.9499,23.2259 60.2039,22.3919 C59.0309,22.0359 57.8569,22.0649 56.7759,22.841 C56.4979,23.041 56.0279,23.068 55.6599,23.0329 C52.6619,22.7579 49.6749,22.5919 46.6869,23.1819 C43.7979,23.7539 42.0829,25.6709 41.0809,28.2319 C40.7729,29.0169 41.0689,30.081 41.2289,30.993 C41.3289,31.5599 41.2949,31.903 40.8569,32.34 C38.6279,34.5579 36.7889,37.083 35.2789,39.8369 C34.9639,40.4119 34.6849,41.1009 34.6899,41.734 C34.6959,42.716 34.4009,43.5029 33.8399,44.271 C32.1939,46.528 31.4489,49.1329 30.9439,51.8379 C30.5949,53.701 30.1529,55.548 29.7599,57.403 C29.2879,59.6349 29.7089,61.534 31.5189,63.132 C32.3019,63.8229 32.7319,64.9149 33.3239,65.8239 C33.5879,66.228 33.7809,66.716 34.1339,67.017 C35.6439,68.315 37.1419,69.638 38.7509,70.804 C43.0549,73.9229 47.1449,77.2829 50.8599,81.0909 C53.3289,83.621 56.2259,85.513 59.4359,87.004 C61.7049,88.058 63.9339,89.2489 66.0349,90.6049 C69.0599,92.556 72.4159,93.709 75.7259,94.974 C80.3339,96.7339 84.5539,99.2009 88.6929,101.836 C88.9739,102.015 89.3629,102.024 89.7019,102.111 C89.7369,101.98 89.7669,101.845 89.7969,101.712 Z" style="stroke:#ffffff;stroke-opacity:1;stroke-width:2.5;stroke-linejoin:;stroke-miterlimit:2;stroke-linecap:butt;fill:none;"/>
</svg>
