<?xml version="1.0"?>
<svg version="1.1" xmlns="http://www.w3.org/2000/svg" xmlns:xlink="http://www.w3.org/1999/xlink" viewBox="0 0 130 130">
    <!-- <circle cx="65" cy="65" r="65" stroke="#fff" stroke-width="8" fill="#F57F17"/> -->
                <path id="shapePath3" d="M39.451,103.428 C41.56,102.332 43.558,100.769 45.802,100.229 C52.405,98.637 57.455,94.547 62.575,90.525 C65.346,88.348 67.98,85.997 70.67,83.717 C70.876,83.543 71.18,83.321 71.19,83.108 C71.267,81.53 72.668,80.945 73.519,79.97 C74.52,78.825 75.823,78.233 77.404,78.384 C77.569,78.4 77.775,78.195 77.931,78.057 C79.938,76.294 80.309,73.192 78.62,71.121 C77.725,70.023 76.581,69.127 75.544,68.145 C75.17,67.791 74.761,67.47 74.416,67.09 C74.33,66.995 74.432,66.73 74.447,66.543 C74.594,66.608 74.765,66.645 74.886,66.743 C75.877,67.538 76.86,68.346 77.929,69.218 C78.605,68.104 79.274,67.118 79.823,66.069 C80.668,64.456 80.511,62.854 79.204,61.589 C78.252,60.668 77.11,59.915 75.962,59.241 C75.502,58.971 74.799,59.099 74.206,59.08 C73.904,59.07 73.541,59.257 73.311,59.142 C72.931,58.953 72.531,58.645 72.345,58.282 C72.235,58.065 72.424,57.546 72.645,57.34 C73.177,56.843 73.778,56.402 74.403,56.027 C75.321,55.475 76.275,54.982 77.23,54.496 C80.324,52.923 83.17,51.029 85.916,48.866 C89.782,45.819 93.976,43.186 98.036,40.385 C99.499,39.376 101.014,38.44 102.432,37.374 C102.841,37.067 103.185,36.446 103.241,35.935 C103.472,33.833 101.363,31.572 99.164,32.234 C96.311,33.092 93.529,34.053 90.919,35.532 C87.404,37.524 83.869,39.492 80.249,41.28 C77.259,42.757 74.534,44.599 71.857,46.549 C70.745,47.36 69.611,48.153 68.429,48.857 C67.456,49.437 66.945,49.25 66.424,48.244 C65.669,46.785 65.564,45.243 66.083,43.693 C68.428,36.697 70.809,29.715 74.308,23.179 C75.058,21.778 75.73,20.33 76.344,18.864 C76.609,18.232 76.789,17.489 76.743,16.814 C76.572,14.341 74.514,13.185 72.36,14.429 C71.443,14.958 70.636,15.821 70.018,16.7 C65.164,23.591 60.333,30.499 57.119,38.367 C56.68,39.443 56.132,40.474 55.658,41.536 C54.813,43.431 53.675,45.087 52.181,46.561 C51.335,47.395 50.718,48.521 50.197,49.61 C49.539,50.982 48.736,52.198 47.698,53.317 C42.471,58.944 37.956,65.143 33.387,71.296 C32.217,72.871 31.025,74.43 29.885,76.026 C29.245,76.922 28.476,77.609 27.479,78.089 C24.997,79.285 22.538,80.531 20.059,81.735 C19.836,81.843 19.533,81.784 19.267,81.803 C19.25,81.699 19.234,81.595 19.217,81.491 C19.42,81.372 19.617,81.241 19.828,81.138 C22.3,79.92 24.798,78.754 27.232,77.465 C28.012,77.052 28.75,76.417 29.29,75.717 C33.989,69.625 38.616,63.478 43.318,57.388 C44.571,55.765 46.056,54.324 47.346,52.727 C48.164,51.715 48.944,50.632 49.517,49.471 C50.246,47.995 51.135,46.694 52.253,45.482 C53.193,44.463 54.019,43.288 54.665,42.061 C55.764,39.978 56.718,37.816 57.67,35.66 C60.84,28.488 65.408,22.178 69.9,15.825 C70.448,15.049 71.238,14.371 72.054,13.876 C73.307,13.118 74.706,13.001 75.941,13.954 C77.197,14.922 77.655,16.321 77.268,17.814 C76.918,19.164 76.326,20.46 75.75,21.74 C73.705,26.289 71.533,30.783 69.587,35.374 C68.48,37.987 67.724,40.749 66.801,43.441 C66.296,44.916 66.236,46.375 66.89,47.826 C67.192,48.495 67.625,48.688 68.264,48.26 C69.18,47.647 70.147,47.097 71.002,46.407 C75.599,42.702 80.925,40.239 86.075,37.476 C87.477,36.724 88.917,36.032 90.27,35.2 C92.961,33.545 95.896,32.527 98.908,31.658 C101.946,30.782 104.305,33.844 103.808,36.365 C103.71,36.86 103.376,37.41 102.984,37.726 C101.961,38.55 100.85,39.267 99.763,40.011 C95.413,42.987 90.849,45.697 86.771,49.006 C83.126,51.963 79.11,54.152 75.054,56.364 C74.439,56.699 73.862,57.114 73.308,57.544 C73.129,57.683 73.081,57.989 72.975,58.219 C73.234,58.33 73.561,58.603 73.743,58.528 C75.128,57.951 76.262,58.557 77.366,59.241 C78.791,60.124 80.081,61.159 80.678,62.81 C81.122,64.034 80.969,65.24 80.369,66.366 C79.894,67.256 79.35,68.112 78.789,68.951 C78.452,69.456 78.379,69.887 78.839,70.336 C81.721,73.15 80.175,78.259 76.435,79.732 C75.356,80.157 74.316,80.691 73.284,81.226 C72.53,81.616 71.933,82.152 71.826,83.098 C71.792,83.4 71.585,83.754 71.347,83.95 C66.344,88.043 61.7,92.593 56.191,96.042 C54.093,97.356 51.916,98.559 49.705,99.673 C48.748,100.155 47.611,100.276 46.562,100.581 C46.124,100.708 45.675,100.838 45.276,101.05 C43.707,101.882 42.164,102.761 40.591,103.587 C40.291,103.743 39.905,103.736 39.559,103.806 C39.525,103.678 39.488,103.553 39.451,103.428 Z" style="stroke:#ffffff;stroke-opacity:1;stroke-width:2.5;stroke-linejoin:miter;stroke-miterlimit:2;stroke-linecap:butt;fill:none;"/>
</svg>
