<?xml version="1.0"?>
<svg version="1.1" xmlns="http://www.w3.org/2000/svg" xmlns:xlink="http://www.w3.org/1999/xlink" viewBox="0 0 130 130">
            <path id="shapePath1" d="M87.0947,109.888 C84.9857,108.792 82.9877,107.229 80.7437,106.689 C74.1407,105.097 69.0907,101.007 63.9707,96.9854 C61.1997,94.8083 58.5657,92.4574 55.8757,90.1774 C55.6697,90.0034 55.3657,89.7814 55.3557,89.5684 C55.2787,87.9904 53.8777,87.4053 53.0267,86.4304 C52.0257,85.2854 50.7227,84.6934 49.1417,84.8444 C48.9767,84.8604 48.7707,84.6553 48.6147,84.5173 C46.6077,82.7543 46.2367,79.6524 47.9257,77.5814 C48.8207,76.4834 49.9647,75.5874 51.0017,74.6053 C51.3757,74.2514 51.7847,73.9304 52.1297,73.5504 C52.2157,73.4554 52.1137,73.1904 52.0987,73.0034 C51.9517,73.0684 51.7807,73.1053 51.6597,73.2034 C50.6687,73.9984 49.6857,74.8064 48.6167,75.6784 C47.9407,74.5643 47.2717,73.5784 46.7227,72.5294 C45.8777,70.9164 46.0347,69.3144 47.3417,68.0494 C48.2937,67.1284 49.4357,66.3754 50.5837,65.7014 C51.0437,65.4314 51.7467,65.5594 52.3397,65.5404 C52.6417,65.5303 53.0047,65.7174 53.2347,65.6024 C53.6147,65.4134 54.0147,65.1054 54.2007,64.7424 C54.3107,64.5254 54.1217,64.0064 53.9007,63.8004 C53.3687,63.3034 52.7677,62.8624 52.1427,62.4874 C51.2247,61.9354 50.2707,61.4424 49.3157,60.9564 C46.2217,59.3834 43.3757,57.4894 40.6297,55.3264 C36.7637,52.2794 32.5697,49.6464 28.5097,46.8454 C27.0467,45.8364 25.5317,44.9004 24.1137,43.8344 C23.7047,43.5274 23.3607,42.9064 23.3047,42.3954 C23.0737,40.2934 25.1827,38.0324 27.3817,38.6944 C30.2347,39.5524 33.0167,40.5134 35.6267,41.9924 C39.1417,43.9844 42.6767,45.9524 46.2967,47.7404 C49.2867,49.2174 52.0117,51.0594 54.6887,53.0094 C55.8007,53.8204 56.9347,54.6134 58.1167,55.3174 C59.0897,55.8974 59.6007,55.7104 60.1217,54.7044 C60.8767,53.2454 60.9817,51.7034 60.4627,50.1534 C58.1177,43.1574 55.7367,36.1754 52.2377,29.6394 C51.4877,28.2384 50.8157,26.7904 50.2017,25.3244 C49.9367,24.6924 49.7567,23.9494 49.8027,23.2744 C49.9737,20.8014 52.0317,19.6454 54.1857,20.8894 C55.1027,21.4184 55.9097,22.2814 56.5277,23.1604 C61.3817,30.0514 66.2127,36.9594 69.4267,44.8274 C69.8657,45.9034 70.4137,46.9344 70.8877,47.9964 C71.7327,49.8914 72.8707,51.5474 74.3647,53.0214 C75.2107,53.8554 75.8277,54.9814 76.3487,56.0704 C77.0067,57.4424 77.8097,58.6584 78.8477,59.7774 C84.0747,65.4044 88.5897,71.6033 93.1587,77.7563 C94.3287,79.3314 95.5207,80.8904 96.6607,82.4864 C97.3007,83.3824 98.0697,84.0694 99.0667,84.5493 C101.549,85.7454 104.008,86.9913 106.487,88.1954 C106.71,88.3034 107.013,88.2444 107.279,88.2634 C107.296,88.1593 107.312,88.0554 107.329,87.9514 C107.126,87.8324 106.929,87.7014 106.718,87.5984 C104.246,86.3804 101.748,85.2144 99.3137,83.9254 C98.5337,83.5124 97.7957,82.8773 97.2557,82.1774 C92.5567,76.0854 87.9297,69.9384 83.2277,63.8484 C81.9747,62.2254 80.4897,60.7844 79.1997,59.1874 C78.3817,58.1754 77.6017,57.0924 77.0287,55.9314 C76.2997,54.4554 75.4107,53.1544 74.2927,51.9424 C73.3527,50.9234 72.5267,49.7484 71.8807,48.5214 C70.7817,46.4384 69.8277,44.2764 68.8757,42.1204 C65.7057,34.9484 61.1377,28.6384 56.6457,22.2854 C56.0977,21.5094 55.3077,20.8314 54.4917,20.3364 C53.2387,19.5784 51.8397,19.4614 50.6047,20.4144 C49.3487,21.3824 48.8907,22.7814 49.2777,24.2744 C49.6277,25.6244 50.2197,26.9204 50.7957,28.2004 C52.8407,32.7494 55.0127,37.2434 56.9587,41.8344 C58.0657,44.4474 58.8217,47.2094 59.7447,49.9014 C60.2497,51.3764 60.3097,52.8354 59.6557,54.2864 C59.3537,54.9554 58.9207,55.1484 58.2817,54.7204 C57.3657,54.1074 56.3987,53.5574 55.5437,52.8674 C50.9467,49.1624 45.6207,46.6994 40.4707,43.9364 C39.0687,43.1844 37.6287,42.4924 36.2757,41.6604 C33.5847,40.0054 30.6497,38.9874 27.6377,38.1184 C24.5997,37.2424 22.2407,40.3044 22.7377,42.8254 C22.8357,43.3204 23.1697,43.8704 23.5617,44.1864 C24.5847,45.0104 25.6957,45.7274 26.7827,46.4714 C31.1327,49.4474 35.6967,52.1574 39.7747,55.4664 C43.4197,58.4234 47.4357,60.6124 51.4917,62.8244 C52.1067,63.1594 52.6837,63.5744 53.2377,64.0043 C53.4167,64.1434 53.4647,64.4494 53.5707,64.6794 C53.3117,64.7904 52.9847,65.0634 52.8027,64.9884 C51.4177,64.4114 50.2837,65.0173 49.1797,65.7014 C47.7547,66.5844 46.4647,67.6194 45.8677,69.2704 C45.4237,70.4944 45.5767,71.7003 46.1767,72.8264 C46.6517,73.7164 47.1957,74.5724 47.7567,75.4113 C48.0937,75.9164 48.1667,76.3474 47.7067,76.7964 C44.8247,79.6104 46.3707,84.7194 50.1107,86.1924 C51.1897,86.6174 52.2297,87.1514 53.2617,87.6864 C54.0157,88.0764 54.6127,88.6124 54.7197,89.5583 C54.7537,89.8604 54.9607,90.2144 55.1987,90.4104 C60.2017,94.5034 64.8457,99.0534 70.3547,102.502 C72.4527,103.816 74.6297,105.019 76.8407,106.133 C77.7977,106.615 78.9347,106.736 79.9837,107.041 C80.4217,107.168 80.8707,107.298 81.2697,107.51 C82.8387,108.342 84.3817,109.221 85.9547,110.047 C86.2547,110.203 86.6407,110.196 86.9867,110.266 C87.0207,110.138 87.0577,110.013 87.0947,109.888 Z" style="stroke:#ffffff;stroke-opacity:1;stroke-width:2.5;stroke-linejoin:;stroke-miterlimit:2;stroke-linecap:butt;fill:none;"/>
</svg>
