<svg xmlns="http://www.w3.org/2000/svg" xmlns:xlink="http://www.w3.org/1999/xlink" version="1.1" x="0px" y="0px" viewBox="0 0 100 125" enable-background="new 0 0 100 100" xml:space="preserve"><path d="M89.3,56.2c-3.8-3.8-10.1-6.6-17.9,1.1L63.7,64c-1.2-1.4-2.6-2.5-3.6-3.1l0.8-11.4l6.8-29.7c0.4-1.5,0.2-3.1-0.6-4.4  c-0.8-1.4-2.1-2.4-3.6-2.8c-1.1-0.3-2.3-0.2-3.3,0.1c0.2-1.3-0.1-2.5-0.7-3.6c-0.8-1.4-2.1-2.4-3.6-2.8c-3.2-0.8-6.4,1-7.3,4.2  c-0.1,0.3-8.9,32.7-9.6,35c-0.5,1.6-1.3,2.5-1.7,2.5c0,0,0,0,0,0c-0.2,0-1-0.5-1.9-3.1c-0.4-1.2-5.6-20.2-7.5-27.5  c-0.9-3.1-4.1-5-7.3-4.2c-1.6,0.4-2.8,1.4-3.6,2.8c-0.8,1.4-1,2.9-0.6,4.4l1.6,5.8c-1-0.3-2.1-0.4-3.3-0.1c-1.6,0.4-2.8,1.4-3.6,2.8  c-0.8,1.4-1,2.9-0.6,4.5l7.1,22.9c0.2,2.4,1.8,24.5,7.4,38c0.2,0.6,0.8,0.9,1.4,0.9c0.2,0,0.4,0,0.6-0.1c0.8-0.3,1.1-1.2,0.8-2  c-5.6-13.5-7.1-37-7.2-37.2c0,0,0,0,0,0c0-0.1,0-0.1,0-0.2c0-0.1,0-0.1,0-0.2c0,0,0,0,0,0l-7.2-23c-0.2-0.7-0.1-1.5,0.3-2.2  c0.4-0.7,1-1.2,1.8-1.4c1.6-0.4,3.2,0.5,3.6,2.1l4.3,14.9l1.1,4c0.2,0.7,0.8,1.1,1.4,1.1c0.1,0,0.3,0,0.4-0.1c0.8-0.2,1.2-1,1.1-1.8  c0-0.1,0-0.3-0.1-0.4L26.2,45l-7.1-25.5c-0.2-0.7-0.1-1.5,0.3-2.2c0.4-0.7,1-1.2,1.8-1.4c1.6-0.4,3.2,0.5,3.6,2  c0.3,1.1,7.1,26.2,7.6,27.6c1.2,3.5,2.7,5.2,4.8,5.2c2.3,0,3.8-2.4,4.5-4.6c0.7-2.3,9.3-33.7,9.6-35.1c0.4-1.5,2.1-2.5,3.6-2  c0.8,0.2,1.4,0.7,1.8,1.4c0.4,0.7,0.5,1.4,0.3,2.2l-7.9,29.8l-1.7,6.4c-0.2,0.8,0.3,1.6,1.1,1.8c0.6,0.2,1.2-0.1,1.6-0.5  c0.1-0.2,0.3-0.4,0.3-0.6l1.7-6.3l7-25.8c0.4-1.5,2-2.5,3.6-2c0.8,0.2,1.4,0.7,1.8,1.4c0.4,0.7,0.5,1.4,0.3,2.2L58,48.9  c0,0.1,0,0.2,0,0.2l-0.9,12.4c0,0,0,0,0,0l0,0c0,0,0,0.1,0,0.1c0,0.1,0,0.1,0,0.2c0,0,0,0.1,0,0.1c0,0.1,0,0.1,0,0.2  c0,0,0,0.1,0.1,0.1c0,0,0,0.1,0.1,0.1c0,0,0,0.1,0.1,0.1c0,0,0.1,0.1,0.1,0.1c0,0,0.1,0.1,0.1,0.1c0,0,0.1,0.1,0.1,0.1  c0,0,0.1,0.1,0.1,0.1c0,0,0.1,0,0.1,0.1c0.8,0.4,3.2,2,4.2,3.9c0.2,0.4,0.6,0.7,1,0.8c0.5,0.1,0.9,0,1.3-0.3l9.1-7.9  c4.6-4.5,8.7-5.3,12.6-2.2l-7.8,7.3l-8,7.3c-0.1,0.1-0.2,0.3-0.3,0.4c-0.1,0.1-7.2,13.9-14,20.1c-0.6,0.6-0.7,1.5-0.1,2.1  c0.3,0.3,0.7,0.5,1.1,0.5c0.4,0,0.7-0.1,1-0.4c6.8-6.2,13.5-18.7,14.5-20.7l7.8-7.2l9-8.4c0.3-0.3,0.5-0.7,0.5-1.1  C89.8,56.8,89.6,56.4,89.3,56.2z"/><text x="0" y="115" fill="#000000" font-size="5px" font-weight="bold" font-family="'Helvetica Neue', Helvetica, Arial-Unicode, Arial, Sans-serif">Created by Till Teenck</text><text x="0" y="120" fill="#000000" font-size="5px" font-weight="bold" font-family="'Helvetica Neue', Helvetica, Arial-Unicode, Arial, Sans-serif">from the Noun Project</text></svg>